<svg width="459" height="377" viewBox="0 0 459 377" fill="none" xmlns="http://www.w3.org/2000/svg">
<g clip-path="url(#clip0_4011_294)">
<rect width="458.566" height="377" fill="#F3F3F3"/>
<circle cx="358.083" cy="28.7998" r="22.7998" fill="white"/>
<path d="M248.637 45.4424C265.633 52.8622 288.533 50.0277 297.045 51.0372C332.781 55.2753 321.775 100.478 309.564 113.321C296.867 126.676 265.623 153.513 249.309 117.694C232.996 81.8741 224.105 85.3656 217.428 64.2174C210.75 43.0693 227.393 36.1676 248.637 45.4424Z" fill="#FA7052"/>
<g filter="url(#filter0_f_4011_294)">
<circle cx="122.67" cy="243.412" r="68.7206" fill="#D3A8FD"/>
</g>
<circle cx="369.282" cy="218.425" r="41.425" fill="white"/>
<g filter="url(#filter1_b_4011_294)">
<path d="M71.5742 117.531C71.5742 96.2488 88.8269 78.9961 110.109 78.9961H350.31C371.592 78.9961 388.845 96.2488 388.845 117.531V312.132H71.5742V117.531Z" fill="white" fill-opacity="0.5"/>
<path d="M110.109 79.4976H350.31C371.315 79.4976 388.344 96.5257 388.344 117.531V311.631H72.0757V117.531C72.0757 96.5258 89.1039 79.4976 110.109 79.4976Z" stroke="#F3F3F3" stroke-width="1.00304"/>
</g>
<g filter="url(#filter2_dddd_4011_294)">
<g clip-path="url(#clip1_4011_294)">
<path d="M80.5664 122.243C80.5664 103.679 95.6162 88.6289 114.181 88.6289H345.597C364.162 88.6289 379.212 103.679 379.212 122.244V317.269H80.5664V122.243Z" fill="url(#paint0_linear_4011_294)"/>
<circle cx="148.352" cy="156.415" r="33.4229" stroke="url(#paint1_radial_4011_294)" stroke-width="1.26922"/>
<rect x="202.236" y="165.59" width="42.0279" height="12.3415" rx="1.7668" fill="#D9D9D9"/>
<rect x="202.236" y="181.934" width="36.6911" height="6.33755" rx="1.7668" fill="#EBEBEB"/>
<rect x="254.938" y="165.59" width="42.0279" height="12.3415" rx="1.7668" fill="#D9D9D9"/>
<rect x="254.938" y="181.934" width="36.6911" height="6.33755" rx="1.7668" fill="#EBEBEB"/>
<rect x="307.641" y="165.59" width="42.0279" height="12.3415" rx="1.7668" fill="#D9D9D9"/>
<rect x="307.641" y="181.934" width="36.6911" height="6.33755" rx="1.7668" fill="#EBEBEB"/>
</g>
</g>
<rect x="13.4863" y="247" width="445.078" height="77.0698" fill="url(#paint2_linear_4011_294)"/>
</g>
<defs>
<filter id="filter0_f_4011_294" x="-10.2757" y="110.467" width="265.891" height="265.891" filterUnits="userSpaceOnUse" color-interpolation-filters="sRGB">
<feFlood flood-opacity="0" result="BackgroundImageFix"/>
<feBlend mode="normal" in="SourceGraphic" in2="BackgroundImageFix" result="shape"/>
<feGaussianBlur stdDeviation="32.1124" result="effect1_foregroundBlur_4011_294"/>
</filter>
<filter id="filter1_b_4011_294" x="41.483" y="48.9049" width="377.454" height="293.319" filterUnits="userSpaceOnUse" color-interpolation-filters="sRGB">
<feFlood flood-opacity="0" result="BackgroundImageFix"/>
<feGaussianBlur in="BackgroundImageFix" stdDeviation="15.0456"/>
<feComposite in2="SourceAlpha" operator="in" result="effect1_backgroundBlur_4011_294"/>
<feBlend mode="normal" in="SourceGraphic" in2="effect1_backgroundBlur_4011_294" result="shape"/>
</filter>
<filter id="filter2_dddd_4011_294" x="67.7214" y="73.8572" width="312.776" height="244.697" filterUnits="userSpaceOnUse" color-interpolation-filters="sRGB">
<feFlood flood-opacity="0" result="BackgroundImageFix"/>
<feColorMatrix in="SourceAlpha" type="matrix" values="0 0 0 0 0 0 0 0 0 0 0 0 0 0 0 0 0 0 127 0" result="hardAlpha"/>
<feOffset dx="-0.642249" dy="-0.642249"/>
<feGaussianBlur stdDeviation="0.963373"/>
<feColorMatrix type="matrix" values="0 0 0 0 0 0 0 0 0 0 0 0 0 0 0 0 0 0 0.05 0"/>
<feBlend mode="normal" in2="BackgroundImageFix" result="effect1_dropShadow_4011_294"/>
<feColorMatrix in="SourceAlpha" type="matrix" values="0 0 0 0 0 0 0 0 0 0 0 0 0 0 0 0 0 0 127 0" result="hardAlpha"/>
<feOffset dx="-1.92675" dy="-2.56899"/>
<feGaussianBlur stdDeviation="1.60562"/>
<feColorMatrix type="matrix" values="0 0 0 0 0 0 0 0 0 0 0 0 0 0 0 0 0 0 0.04 0"/>
<feBlend mode="normal" in2="effect1_dropShadow_4011_294" result="effect2_dropShadow_4011_294"/>
<feColorMatrix in="SourceAlpha" type="matrix" values="0 0 0 0 0 0 0 0 0 0 0 0 0 0 0 0 0 0 127 0" result="hardAlpha"/>
<feOffset dx="-4.49574" dy="-5.13799"/>
<feGaussianBlur stdDeviation="1.92675"/>
<feColorMatrix type="matrix" values="0 0 0 0 0 0 0 0 0 0 0 0 0 0 0 0 0 0 0.03 0"/>
<feBlend mode="normal" in2="effect2_dropShadow_4011_294" result="effect3_dropShadow_4011_294"/>
<feColorMatrix in="SourceAlpha" type="matrix" values="0 0 0 0 0 0 0 0 0 0 0 0 0 0 0 0 0 0 127 0" result="hardAlpha"/>
<feOffset dx="-7.70698" dy="-9.63373"/>
<feGaussianBlur stdDeviation="2.56899"/>
<feColorMatrix type="matrix" values="0 0 0 0 0 0 0 0 0 0 0 0 0 0 0 0 0 0 0.01 0"/>
<feBlend mode="normal" in2="effect3_dropShadow_4011_294" result="effect4_dropShadow_4011_294"/>
<feBlend mode="normal" in="SourceGraphic" in2="effect4_dropShadow_4011_294" result="shape"/>
</filter>
<linearGradient id="paint0_linear_4011_294" x1="229.889" y1="88.6289" x2="229.889" y2="317.269" gradientUnits="userSpaceOnUse">
<stop offset="0.2" stop-color="white"/>
<stop offset="1" stop-color="#F3F3F3"/>
</linearGradient>
<radialGradient id="paint1_radial_4011_294" cx="0" cy="0" r="1" gradientUnits="userSpaceOnUse" gradientTransform="translate(108.825 147.074) rotate(12.9946) scale(102.824)">
<stop offset="0.261335" stop-color="#C890FF"/>
<stop offset="1" stop-color="#F45B08"/>
</radialGradient>
<linearGradient id="paint2_linear_4011_294" x1="235.704" y1="256.277" x2="235.704" y2="279.469" gradientUnits="userSpaceOnUse">
<stop stop-color="#F3F3F3" stop-opacity="0"/>
<stop offset="1" stop-color="#F3F3F3"/>
</linearGradient>
<clipPath id="clip0_4011_294">
<rect width="458.566" height="377" fill="white"/>
</clipPath>
<clipPath id="clip1_4011_294">
<path d="M80.5664 122.243C80.5664 103.679 95.6162 88.6289 114.181 88.6289H345.597C364.162 88.6289 379.212 103.679 379.212 122.244V317.269H80.5664V122.243Z" fill="white"/>
</clipPath>
</defs>
</svg>
